<svg width="544" height="544" viewBox="0 0 544 544" fill="none" xmlns="http://www.w3.org/2000/svg">
<circle cx="272" cy="272" r="272" fill="black"/>
<path d="M199.215 287.479H182.521L179.347 297H169.222L186.424 250.789H195.248L212.545 297H202.42L199.215 287.479ZM185.091 279.766H196.644L190.836 262.469L185.091 279.766ZM231.461 285.542L241.935 250.789H252.535L236.444 297H226.51L210.482 250.789H221.051L231.461 285.542ZM284.718 276.973H266.437V289.351H287.892V297H256.915V250.789H287.828V258.501H266.437V269.515H284.718V276.973ZM293.478 297V250.789H307.696C311.759 250.789 315.388 251.709 318.583 253.55C321.799 255.37 324.306 257.972 326.104 261.358C327.903 264.722 328.802 268.552 328.802 272.847V274.974C328.802 279.269 327.914 283.088 326.136 286.431C324.38 289.774 321.894 292.366 318.678 294.207C315.462 296.048 311.833 296.979 307.792 297H293.478ZM302.999 258.501V289.351H307.601C311.325 289.351 314.171 288.134 316.139 285.701C318.106 283.268 319.111 279.787 319.154 275.259V272.815C319.154 268.118 318.181 264.563 316.234 262.151C314.287 259.718 311.441 258.501 307.696 258.501H302.999ZM361.144 287.479H344.449L341.275 297H331.151L348.353 250.789H357.176L374.474 297H364.349L361.144 287.479ZM347.02 279.766H358.573L352.765 262.469L347.02 279.766Z" fill="white"/>
</svg>
