<svg width="544" height="544" viewBox="0 0 544 544" fill="none" xmlns="http://www.w3.org/2000/svg">
<circle cx="272" cy="272" r="272" fill="black"/>
<path d="M181.403 281.607C181.043 286.579 179.202 290.494 175.88 293.35C172.58 296.207 168.221 297.635 162.804 297.635C156.88 297.635 152.214 295.646 148.808 291.668C145.422 287.669 143.729 282.189 143.729 275.228V272.403C143.729 267.959 144.512 264.045 146.078 260.66C147.644 257.274 149.876 254.682 152.775 252.884C155.695 251.064 159.08 250.154 162.931 250.154C168.263 250.154 172.558 251.583 175.817 254.439C179.075 257.295 180.958 261.305 181.466 266.468H171.945C171.712 263.484 170.876 261.326 169.438 259.993C168.02 258.639 165.851 257.962 162.931 257.962C159.757 257.962 157.377 259.104 155.79 261.39C154.224 263.654 153.42 267.177 153.378 271.958V275.45C153.378 280.443 154.129 284.093 155.631 286.399C157.155 288.706 159.546 289.859 162.804 289.859C165.745 289.859 167.935 289.192 169.374 287.859C170.834 286.505 171.67 284.421 171.881 281.607H181.403ZM197.177 289.351H217.394V297H187.655V250.789H197.177V289.351ZM249.608 287.479H232.914L229.74 297H219.616L236.818 250.789H245.641L262.938 297H252.814L249.608 287.479ZM235.485 279.766H247.038L241.229 262.469L235.485 279.766ZM277.379 297H267.858V250.789H277.379V297ZM303.341 280.083H295.756V297H286.234V250.789H303.405C308.864 250.789 313.074 252.006 316.037 254.439C318.999 256.872 320.48 260.311 320.48 264.754C320.48 267.907 319.792 270.541 318.417 272.657C317.063 274.751 315 276.423 312.228 277.671L322.226 296.556V297H312.006L303.341 280.083ZM295.756 272.371H303.437C305.827 272.371 307.679 271.768 308.991 270.562C310.303 269.335 310.958 267.653 310.958 265.516C310.958 263.336 310.334 261.622 309.086 260.374C307.859 259.126 305.965 258.501 303.405 258.501H295.756V272.371ZM365.707 274.942C365.707 279.491 364.903 283.479 363.295 286.907C361.687 290.335 359.381 292.98 356.376 294.842C353.393 296.704 349.965 297.635 346.093 297.635C342.263 297.635 338.846 296.714 335.841 294.874C332.837 293.033 330.509 290.409 328.859 287.002C327.208 283.575 326.373 279.639 326.352 275.196V272.911C326.352 268.361 327.166 264.362 328.795 260.914C330.446 257.444 332.763 254.788 335.746 252.947C338.751 251.085 342.178 250.154 346.029 250.154C349.88 250.154 353.297 251.085 356.281 252.947C359.285 254.788 361.602 257.444 363.231 260.914C364.882 264.362 365.707 268.351 365.707 272.879V274.942ZM356.059 272.847C356.059 268.002 355.191 264.32 353.456 261.802C351.721 259.284 349.245 258.025 346.029 258.025C342.834 258.025 340.369 259.274 338.634 261.771C336.899 264.246 336.021 267.885 336 272.688V274.942C336 279.66 336.868 283.321 338.603 285.923C340.338 288.526 342.834 289.827 346.093 289.827C349.288 289.827 351.742 288.579 353.456 286.082C355.17 283.564 356.037 279.904 356.059 275.101V272.847ZM382.147 289.351H402.365V297H372.626V250.789H382.147V289.351Z" fill="white"/>
</svg>
