<svg width="544" height="544" viewBox="0 0 544 544" fill="none" xmlns="http://www.w3.org/2000/svg">
<circle cx="272" cy="272" r="272" fill="black"/>
<path d="M160.647 289.351H180.865V297H151.126V250.789H160.647V289.351ZM222.283 274.942C222.283 279.491 221.479 283.479 219.871 286.907C218.263 290.335 215.957 292.98 212.952 294.842C209.969 296.704 206.541 297.635 202.669 297.635C198.839 297.635 195.422 296.714 192.417 294.874C189.413 293.033 187.085 290.409 185.435 287.002C183.785 283.575 182.949 279.639 182.928 275.196V272.911C182.928 268.361 183.742 264.362 185.372 260.914C187.022 257.444 189.339 254.788 192.322 252.947C195.327 251.085 198.755 250.154 202.605 250.154C206.456 250.154 209.874 251.085 212.857 252.947C215.861 254.788 218.178 257.444 219.808 260.914C221.458 264.362 222.283 268.351 222.283 272.879V274.942ZM212.635 272.847C212.635 268.002 211.767 264.32 210.032 261.802C208.297 259.284 205.822 258.025 202.605 258.025C199.41 258.025 196.945 259.274 195.21 261.771C193.475 264.246 192.597 267.885 192.576 272.688V274.942C192.576 279.66 193.444 283.321 195.179 285.923C196.914 288.526 199.41 289.827 202.669 289.827C205.864 289.827 208.318 288.579 210.032 286.082C211.746 283.564 212.614 279.904 212.635 275.101V272.847ZM231.233 264.976L226.917 262.469C228.737 259.612 229.678 256.661 229.742 253.614V248.25H237.042V253.169C237.042 255.074 236.513 257.137 235.455 259.358C234.397 261.58 232.99 263.453 231.233 264.976ZM261.226 280.083H253.641V297H244.119V250.789H261.29C266.749 250.789 270.959 252.006 273.921 254.439C276.884 256.872 278.365 260.311 278.365 264.754C278.365 267.907 277.677 270.541 276.302 272.657C274.948 274.751 272.885 276.423 270.113 277.671L280.11 296.556V297H269.891L261.226 280.083ZM253.641 272.371H261.321C263.712 272.371 265.564 271.768 266.875 270.562C268.187 269.335 268.843 267.653 268.843 265.516C268.843 263.336 268.219 261.622 266.971 260.374C265.743 259.126 263.85 258.501 261.29 258.501H253.641V272.371ZM313.436 276.973H295.154V289.351H316.609V297H285.633V250.789H316.546V258.501H295.154V269.515H313.436V276.973ZM348.284 287.479H331.59L328.416 297H318.292L335.494 250.789H344.317L361.614 297H351.49L348.284 287.479ZM334.161 279.766H345.713L339.905 262.469L334.161 279.766ZM375.452 289.351H395.669V297H365.931V250.789H375.452V289.351Z" fill="white"/>
</svg>
