<svg width="544" height="544" viewBox="0 0 544 544" fill="none" xmlns="http://www.w3.org/2000/svg">
<circle cx="272" cy="272" r="272" fill="black"/>
<path d="M104.704 297H95.1826L76.6475 266.595V297H67.126V250.789H76.6475L95.2144 281.258V250.789H104.704V297ZM140.822 276.973H122.541V289.351H143.996V297H113.02V250.789H143.933V258.501H122.541V269.515H140.822V276.973ZM184.558 250.789V281.226C184.558 286.283 182.971 290.282 179.797 293.223C176.644 296.164 172.328 297.635 166.848 297.635C161.452 297.635 157.167 296.207 153.994 293.35C150.82 290.494 149.201 286.569 149.138 281.575V250.789H158.659V281.29C158.659 284.315 159.379 286.526 160.817 287.923C162.277 289.298 164.287 289.986 166.848 289.986C172.201 289.986 174.92 287.172 175.004 281.543V250.789H184.558ZM227.15 258.501H212.995V297H203.474V258.501H189.509V250.789H227.15V258.501ZM249.716 280.083H242.131V297H232.609V250.789H249.78C255.239 250.789 259.449 252.006 262.412 254.439C265.374 256.872 266.855 260.311 266.855 264.754C266.855 267.907 266.167 270.541 264.792 272.657C263.438 274.751 261.375 276.423 258.603 277.671L268.601 296.556V297H258.381L249.716 280.083ZM242.131 272.371H249.812C252.202 272.371 254.054 271.768 255.366 270.562C256.678 269.335 257.333 267.653 257.333 265.516C257.333 263.336 256.709 261.622 255.461 260.374C254.234 259.126 252.34 258.501 249.78 258.501H242.131V272.371ZM312.082 274.942C312.082 279.491 311.278 283.479 309.67 286.907C308.062 290.335 305.756 292.98 302.751 294.842C299.768 296.704 296.34 297.635 292.468 297.635C288.638 297.635 285.221 296.714 282.216 294.874C279.212 293.033 276.884 290.409 275.234 287.002C273.583 283.575 272.748 279.639 272.727 275.196V272.911C272.727 268.361 273.541 264.362 275.17 260.914C276.821 257.444 279.138 254.788 282.121 252.947C285.126 251.085 288.553 250.154 292.404 250.154C296.255 250.154 299.672 251.085 302.656 252.947C305.66 254.788 307.977 257.444 309.606 260.914C311.257 264.362 312.082 268.351 312.082 272.879V274.942ZM302.434 272.847C302.434 268.002 301.566 264.32 299.831 261.802C298.096 259.284 295.62 258.025 292.404 258.025C289.209 258.025 286.744 259.274 285.009 261.771C283.274 264.246 282.396 267.885 282.375 272.688V274.942C282.375 279.66 283.243 283.321 284.978 285.923C286.713 288.526 289.209 289.827 292.468 289.827C295.663 289.827 298.117 288.579 299.831 286.082C301.545 283.564 302.412 279.904 302.434 275.101V272.847ZM355.563 291.16C353.85 293.213 351.427 294.81 348.295 295.953C345.164 297.074 341.694 297.635 337.885 297.635C333.886 297.635 330.374 296.767 327.348 295.032C324.344 293.276 322.016 290.737 320.366 287.415C318.736 284.093 317.901 280.189 317.858 275.704V272.562C317.858 267.949 318.631 263.96 320.175 260.596C321.741 257.211 323.984 254.629 326.904 252.852C329.845 251.054 333.283 250.154 337.219 250.154C342.699 250.154 346.984 251.466 350.073 254.09C353.162 256.692 354.992 260.49 355.563 265.484H346.296C345.873 262.839 344.931 260.903 343.471 259.676C342.032 258.449 340.043 257.835 337.504 257.835C334.267 257.835 331.802 259.052 330.109 261.485C328.417 263.918 327.56 267.536 327.539 272.339V275.291C327.539 280.136 328.459 283.797 330.3 286.272C332.141 288.748 334.838 289.986 338.393 289.986C341.969 289.986 344.519 289.224 346.042 287.701V279.734H337.377V272.72H355.563V291.16ZM391.11 276.973H372.829V289.351H394.284V297H363.308V250.789H394.221V258.501H372.829V269.515H391.11V276.973ZM437.448 297H427.927L409.392 266.595V297H399.87V250.789H409.392L427.958 281.258V250.789H437.448V297ZM472.424 287.479H455.729L452.556 297H442.431L459.633 250.789H468.457L485.754 297H475.629L472.424 287.479ZM458.3 279.766H469.853L464.045 262.469L458.3 279.766Z" fill="white"/>
</svg>
