<svg width="544" height="544" viewBox="0 0 544 544" fill="none" xmlns="http://www.w3.org/2000/svg">
<circle cx="272" cy="272" r="272" fill="black"/>
<path d="M208.704 297H199.183L180.647 266.595V297H171.126V250.789H180.647L199.214 281.258V250.789H208.704V297ZM254.979 274.942C254.979 279.491 254.174 283.479 252.566 286.907C250.958 290.335 248.652 292.98 245.647 294.842C242.664 296.704 239.236 297.635 235.364 297.635C231.535 297.635 228.117 296.714 225.113 294.874C222.108 293.033 219.781 290.409 218.13 287.002C216.48 283.575 215.644 279.639 215.623 275.196V272.911C215.623 268.361 216.438 264.362 218.067 260.914C219.717 257.444 222.034 254.788 225.018 252.947C228.022 251.085 231.45 250.154 235.301 250.154C239.152 250.154 242.569 251.085 245.552 252.947C248.557 254.788 250.874 257.444 252.503 260.914C254.153 264.362 254.979 268.351 254.979 272.879V274.942ZM245.33 272.847C245.33 268.002 244.463 264.32 242.728 261.802C240.993 259.284 238.517 258.025 235.301 258.025C232.106 258.025 229.641 259.274 227.906 261.771C226.171 264.246 225.293 267.885 225.271 272.688V274.942C225.271 279.66 226.139 283.321 227.874 285.923C229.609 288.526 232.106 289.827 235.364 289.827C238.559 289.827 241.014 288.579 242.728 286.082C244.441 283.564 245.309 279.904 245.33 275.101V272.847ZM278.274 285.542L288.748 250.789H299.349L283.257 297H273.323L257.295 250.789H267.864L278.274 285.542ZM331.531 276.973H313.25V289.351H334.705V297H303.729V250.789H334.642V258.501H313.25V269.515H331.531V276.973ZM356.827 266.722L365.491 250.789H376.441L362.984 273.704L376.79 297H365.713L356.827 280.813L347.94 297H336.863L350.669 273.704L337.212 250.789H348.162L356.827 266.722Z" fill="white"/>
</svg>
