<svg width="544" height="544" viewBox="0 0 544 544" fill="none" xmlns="http://www.w3.org/2000/svg">
<circle cx="272" cy="272" r="272" fill="black"/>
<path d="M143.647 280.718V297H134.126V250.789H152.153C155.623 250.789 158.67 251.424 161.294 252.693C163.939 253.963 165.97 255.772 167.388 258.121C168.805 260.448 169.514 263.104 169.514 266.087C169.514 270.615 167.959 274.191 164.849 276.814C161.759 279.417 157.475 280.718 151.995 280.718H143.647ZM143.647 273.006H152.153C154.671 273.006 156.586 272.413 157.898 271.229C159.231 270.044 159.897 268.351 159.897 266.15C159.897 263.886 159.231 262.056 157.898 260.66C156.565 259.263 154.724 258.544 152.375 258.501H143.647V273.006ZM196.523 287.479H179.829L176.655 297H166.531L183.733 250.789H192.556L209.854 297H199.729L196.523 287.479ZM182.4 279.766H193.953L188.145 262.469L182.4 279.766ZM251.748 297H242.227L223.691 266.595V297H214.17V250.789H223.691L242.258 281.258V250.789H251.748V297ZM293.896 258.501H279.741V297H270.22V258.501H256.255V250.789H293.896V258.501ZM327.158 276.973H308.877V289.351H330.332V297H299.355V250.789H330.269V258.501H308.877V269.515H327.158V276.973ZM373.496 297H363.975L345.439 266.595V297H335.918V250.789H345.439L364.006 281.258V250.789H373.496V297ZM409.614 276.973H391.333V289.351H412.788V297H381.812V250.789H412.725V258.501H391.333V269.515H409.614V276.973Z" fill="white"/>
</svg>
