<svg width="544" height="544" viewBox="0 0 544 544" fill="none" xmlns="http://www.w3.org/2000/svg">
<circle cx="272" cy="272" r="272" fill="black"/>
<path d="M128.088 284.876C128.088 283.077 127.454 281.702 126.184 280.75C124.915 279.777 122.629 278.761 119.329 277.703C116.028 276.624 113.415 275.566 111.489 274.529C106.242 271.694 103.618 267.875 103.618 263.072C103.618 260.575 104.316 258.353 105.713 256.407C107.131 254.439 109.151 252.905 111.775 251.805C114.42 250.704 117.382 250.154 120.662 250.154C123.962 250.154 126.903 250.757 129.485 251.963C132.066 253.148 134.066 254.83 135.483 257.01C136.922 259.189 137.642 261.665 137.642 264.437H128.12C128.12 262.321 127.454 260.681 126.121 259.517C124.788 258.332 122.915 257.74 120.503 257.74C118.175 257.74 116.366 258.237 115.076 259.231C113.785 260.205 113.14 261.495 113.14 263.104C113.14 264.606 113.891 265.865 115.393 266.88C116.917 267.896 119.149 268.848 122.09 269.737C127.507 271.366 131.453 273.387 133.928 275.799C136.404 278.211 137.642 281.215 137.642 284.812C137.642 288.812 136.129 291.954 133.103 294.239C130.077 296.503 126.004 297.635 120.884 297.635C117.329 297.635 114.092 296.989 111.172 295.699C108.252 294.387 106.02 292.599 104.475 290.335C102.952 288.071 102.19 285.447 102.19 282.464H111.743C111.743 287.563 114.79 290.113 120.884 290.113C123.148 290.113 124.915 289.658 126.184 288.748C127.454 287.817 128.088 286.526 128.088 284.876ZM170.205 287.479H153.511L150.337 297H140.212L157.415 250.789H166.238L183.535 297H173.411L170.205 287.479ZM156.082 279.766H167.634L161.826 262.469L156.082 279.766ZM197.373 289.351H217.59V297H187.852V250.789H197.373V289.351ZM259.009 274.942C259.009 279.491 258.205 283.479 256.597 286.907C254.989 290.335 252.682 292.98 249.678 294.842C246.694 296.704 243.267 297.635 239.395 297.635C235.565 297.635 232.148 296.714 229.143 294.874C226.139 293.033 223.811 290.409 222.161 287.002C220.51 283.575 219.674 279.639 219.653 275.196V272.911C219.653 268.361 220.468 264.362 222.097 260.914C223.748 257.444 226.064 254.788 229.048 252.947C232.052 251.085 235.48 250.154 239.331 250.154C243.182 250.154 246.599 251.085 249.583 252.947C252.587 254.788 254.904 257.444 256.533 260.914C258.184 264.362 259.009 268.351 259.009 272.879V274.942ZM249.36 272.847C249.36 268.002 248.493 264.32 246.758 261.802C245.023 259.284 242.547 258.025 239.331 258.025C236.136 258.025 233.671 259.274 231.936 261.771C230.201 264.246 229.323 267.885 229.302 272.688V274.942C229.302 279.66 230.169 283.321 231.904 285.923C233.639 288.526 236.136 289.827 239.395 289.827C242.59 289.827 245.044 288.579 246.758 286.082C248.472 283.564 249.339 279.904 249.36 275.101V272.847ZM303.506 297H293.984L275.449 266.595V297H265.928V250.789H275.449L294.016 281.258V250.789H303.506V297ZM321.343 289.351H341.56V297H311.821V250.789H321.343V289.351ZM357.175 297H347.654V250.789H357.175V297ZM403.608 297H394.087L375.552 266.595V297H366.03V250.789H375.552L394.119 281.258V250.789H403.608V297ZM439.727 276.973H421.445V289.351H442.9V297H411.924V250.789H442.837V258.501H421.445V269.515H439.727V276.973Z" fill="white"/>
</svg>
